# xmcd
#
# Track frame offsets: 
#        150
#        17353
#        30275
#        45514
#        56681
#        68904
#        84371
#        99522
#        112238
#        125933
#        144423
#        157928
#        174082
#        185706
#        197818
#
# Disc length: 2815 seconds
#
# Revision: 5
# Processed by: cddbd v1.5.2PL0 Copyright (c) Steve Scherf et al.
# Submitted via: ExactAudioCopy v0.99pb5
#
DISCID=c30afd0f
DTITLE=Various Artist - Classic Country - TL 626-24 - 1983 - 1985 - CD 1
DYEAR=2001
DGENRE=Country
TTITLE0=Alabama - If you're gonna play in Texas (you gotta have a fidd
TTITLE0=le in the band)
TTITLE1=Merle Haggard - Let's chase each other around the room
TTITLE2=Dolly Parton - Tennessee homesick blues
TTITLE3=George Jones - She's my rock
TTITLE4=Charley Pride - Night games
TTITLE5=Bellamy Brothers - I need more of you
TTITLE6=Nitty Gritty Dirt Band - Long hard road
TTITLE7=Barbara Mandrell - One of a kind pair of fools
TTITLE8=Ricky Skaggs - I wouldn't change you if I could
TTITLE9=Steve Wariner - Some fools never learn
TTITLE10=John Anderson - Black sheep
TTITLE11=Emmylou Harris - (Lost his love) on our last date
TTITLE12=Gene Watson - You're out doing what I'm here doing without
TTITLE13=Oak Ridge Boys - American made
TTITLE14=Hank Williams Jr. - All my rowdy friends are coming over toni
TTITLE14=ght
EXTD=
EXTT0=
EXTT1=
EXTT2=
EXTT3=
EXTT4=
EXTT5=
EXTT6=
EXTT7=
EXTT8=
EXTT9=
EXTT10=
EXTT11=
EXTT12=
EXTT13=
EXTT14=
PLAYORDER=
